<?xml version="1.0" encoding="UTF-8" standalone="no"?>
<!-- Created with Inkscape (http://www.inkscape.org/) -->

<svg
   xmlns:dc="http://purl.org/dc/elements/1.1/"
   xmlns:cc="http://creativecommons.org/ns#"
   xmlns:rdf="http://www.w3.org/1999/02/22-rdf-syntax-ns#"
   xmlns:svg="http://www.w3.org/2000/svg"
   xmlns="http://www.w3.org/2000/svg"
   xmlns:sodipodi="http://sodipodi.sourceforge.net/DTD/sodipodi-0.dtd"
   xmlns:inkscape="http://www.inkscape.org/namespaces/inkscape"
   width="1000"
   height="1000"
   id="svg2989"
   version="1.1"
   inkscape:version="0.48.3.1 r9886"
   sodipodi:docname="book.svg">
  <defs
     id="defs5498" />
  <sodipodi:namedview
     inkscape:window-height="1389"
     inkscape:window-width="2496"
     inkscape:pageshadow="2"
     inkscape:pageopacity="0.0"
     borderopacity="1.0"
     bordercolor="#666666"
     pagecolor="#ffffff"
     id="base"
     showgrid="false"
     showguides="true"
     inkscape:guide-bbox="true"
     inkscape:zoom="0.5508046"
     inkscape:cx="-191.79883"
     inkscape:cy="643.75"
     inkscape:window-x="64"
     inkscape:window-y="28"
     inkscape:current-layer="layer1"
     inkscape:window-maximized="1">
    <sodipodi:guide
       orientation="horizontal"
       position="200"
       id="guide5596" />
  </sodipodi:namedview>
  <metadata
     id="metadata5594">
    <rdf:RDF>
      <cc:Work
         rdf:about="">
        <dc:format>image/svg+xml</dc:format>
        <dc:type
           rdf:resource="http://purl.org/dc/dcmitype/StillImage" />
        <dc:title />
      </cc:Work>
    </rdf:RDF>
  </metadata>
  <g
     inkscape:label="Layer 1"
     inkscape:groupmode="layer"
     id="layer1">
    <g
       transform="matrix(0.53003533,0,0,-0.53003533,-3.5335635,794.16961)"
       id="g4">
      <path
         d="m 882,1302 q -11,11 -21,11 -13,0 -37,-22 -24,-22 -82,-85 Q 250,680 236,662 221,643 207.5,606 194,569 170,547 q -31,-27 -49,-54 -20,-26 -20,-41 0,-6 3,-18 3,-34 23.5,-51 20.5,-17 95.5,-48 l 208,-88 q 108,-45 127,-45 6,0 21,4 13,4 24,4 16,0 29,-10.5 13,-10.5 27,-35.5 20,-31 237,-196 217,-165 233,-170 2,-1 3,-1 10,0 55,59 44,59 277,383 81,111 160.5,222.5 79.5,111.5 122.5,173 43,61.5 46,66.5 6,13 6,42 0,61 -19,110 -9,21 -15.5,44 -6.5,23 -9.5,36 -3,13 -9.5,25 -6.5,12 -17.5,18 -11,6 -31,10 -41,8 -87,31.5 -46,23.5 -138,83.5 -64,41 -92.5,53 -28.5,12 -70.5,12 -49,0 -67,-13 -13,-9 -16,-9 -3,0 -9,10 -7,16 -30.5,38.5 -23.5,22.5 -42.5,31.5 -14,8 -71.5,17.5 -57.5,9.5 -113.5,24.5 -56,15 -77,36 z M 637,958 q 208,227 210,227 h 2 q 3,0 7.5,-3 4.5,-3 14,-9 9.5,-6 24.5,-12.5 15,-6.5 43.5,-14 28.5,-7.5 65.5,-13.5 54,-7 84,-17 18,-6 40.5,-29 22.5,-23 22.5,-32 0,-15 -129,-186 L 785,548 Q 680,406 672,406 q -4,0 -7.5,11 -3.5,11 -12.5,29.5 -9,18.5 -25.5,39 Q 610,506 571,528.5 532,551 476,567 390,590 352,614 l -20,12 z m 543,9 q 24,33 34,45.5 10,12.5 24,23 14,10.5 30,10.5 24,0 62,-20 38,-20 132,-79 68,-42 102,-54 l 40,-15 -232,-315 Q 1134,240 1126,230 l -14,-16 -28,19 q -30,21 -90,80 -60,58 -92,81 -46,29 -94,29 -8,0 -14,-1 l -18,-3 62,87 q 62,88 82,107 20,17 20,25 0,6 16,28.5 16,22.5 20,22.5 2,0 40,54 36,55 48,61 8,10 8,13 0,6 30,43 z m 502,-222 q 0,-35 -258,-391 -265,-365 -270,-365 -3,0 -9,46 -4,29 -4,38 0,37 39.5,98 39.5,61 215.5,299 242,331 249,339 l 16,19 14,-43 q 7,-20 7,-40 z M 284,527 q 9,8 13,8 5,0 23,-13 20,-13 96,-35 86,-24 122.5,-49 36.5,-25 56.5,-73 18,-44 4,-45 -3,0 -6,1 -8,4 -11.5,0 -3.5,-4 -9.5,-3.5 -6,0.5 -20,13.5 -33,32 -79.5,53 -46.5,21 -84.5,29 -38,8 -73.5,16.5 Q 279,438 267,446 q -7,7 -7,23 0,14 6,22 6,8 6,16 0,8 12,20 z M 761,335 q 20,7 35,7 28,0 64.5,-24 36.5,-24 101.5,-87 56,-56 92,-80 l 28,-20 -8,-17 q -6,-13 -6,-42 0,-14 1,-41 2,-37 2,-47 0,-18 -5,-18 -1,0 -4,1 -48,21 -136,123 -39,45 -78,81 -39,36 -58,45 -17,8 -25.5,16.5 -8.5,8.5 -22.5,8.5 -12,0 -32.5,18 -20.5,18 -20.5,28 0,6 25,23 25,17 47,25 z"
         id="path6"
         inkscape:connector-curvature="0"
         style="fill:currentColor" />
    </g>
  </g>
</svg>
