<?xml version="1.0" encoding="UTF-8" standalone="no"?>
<!-- Created with Inkscape (http://www.inkscape.org/) -->

<svg
   xmlns:dc="http://purl.org/dc/elements/1.1/"
   xmlns:cc="http://creativecommons.org/ns#"
   xmlns:rdf="http://www.w3.org/1999/02/22-rdf-syntax-ns#"
   xmlns:svg="http://www.w3.org/2000/svg"
   xmlns="http://www.w3.org/2000/svg"
   xmlns:sodipodi="http://sodipodi.sourceforge.net/DTD/sodipodi-0.dtd"
   xmlns:inkscape="http://www.inkscape.org/namespaces/inkscape"
   width="1000"
   height="1000"
   id="svg2989"
   version="1.1"
   inkscape:version="0.48.3.1 r9886"
   sodipodi:docname="chat.svg">
  <defs
     id="defs5498" />
  <sodipodi:namedview
     inkscape:window-height="1382"
     inkscape:window-width="2496"
     inkscape:pageshadow="2"
     inkscape:pageopacity="0.0"
     borderopacity="1.0"
     bordercolor="#666666"
     pagecolor="#ffffff"
     id="base"
     showgrid="false"
     showguides="true"
     inkscape:guide-bbox="true"
     inkscape:zoom="0.5508046"
     inkscape:cx="-418.73956"
     inkscape:cy="643.75"
     inkscape:window-x="64"
     inkscape:window-y="28"
     inkscape:current-layer="layer1"
     inkscape:window-maximized="1">
    <sodipodi:guide
       orientation="horizontal"
       position="200"
       id="guide5596" />
  </sodipodi:namedview>
  <metadata
     id="metadata5594">
    <rdf:RDF>
      <cc:Work
         rdf:about="">
        <dc:format>image/svg+xml</dc:format>
        <dc:type
           rdf:resource="http://purl.org/dc/dcmitype/StillImage" />
        <dc:title></dc:title>
      </cc:Work>
    </rdf:RDF>
  </metadata>
  <g
     inkscape:label="Layer 1"
     inkscape:groupmode="layer"
     id="layer1">
    <g
       transform="matrix(0.49117077,0,0,-0.49117077,20.55233,749.40941)"
       id="g3489">
      <path
         style="fill:currentColor"
         inkscape:connector-curvature="0"
         d="m 1027.5,523 q -29.5,-6 -43,-32 -13.5,-26 -5,-54.5 8.5,-28.5 36.5,-38.5 17,-7 36.5,-8.5 19.5,-1.5 49.5,0 30,1.5 37,1.5 h 253 q 8,0 41,-2 33,-2 54.5,0 21.5,2 38.5,10 28,13 35.5,41 7.5,28 -7,53 -14.5,25 -43.5,31 -37,7 -82.5,7.5 -45.5,0.5 -102.5,-3 -57,-3.5 -83,-3.5 -21,0 -67,2.5 -46,2.5 -82.5,2 -36.5,-0.5 -66,-6.5 z M 1273,286 q -28,-6 -43,-30.5 -15,-24.5 -9,-52.5 6,-28 33,-41 9,-4 20.5,-6.5 11.5,-2.5 18,-2.5 h 22.5 20 q 15,0 56,-2.5 41,-2.5 72,-1.5 31,1 56,8 26,9 38,34.5 12,25.5 3.5,52 -8.5,26.5 -34.5,37.5 -9,4 -21,5.5 -12,1.5 -20,1.5 h -23 -20 q -16,0 -52.5,1.5 -36.5,1.5 -64.5,1 -28,-0.5 -52,-4.5 z M 62,77 q 4,14 11.5,29.5 7.5,15.5 18,34 Q 102,159 107,169 l 105,203 q 4,8 20,32.5 16,24.5 25.5,44 9.5,19.5 10.5,34.5 1,9 -4,20 -5,11 -13.5,23.5 Q 242,539 240,545 q -37,75 -50,134 -34,152 5,299.5 39,147.5 143,263.5 74,82 171.5,133.5 97.5,51.5 200.5,69 103,17.5 211.5,4.5 108.5,-13 204.5,-54 96,-41 178.5,-114 82.5,-73 134.5,-169 60,-110 68,-211 -3,1 -36.5,8.5 -33.5,7.5 -51.5,10.5 -3,0 -14.5,0.5 -11.5,0.5 -20,2 -8.5,1.5 -14,5 -5.5,3.5 -8.5,10.5 -3,7 -6,18.5 -3,11.5 -4,13.5 -14,41 -38,85 -55,99 -160,171 -76,51 -166,74 -90,23 -177.5,17 Q 723,1311 638,1278 553,1245 486,1190.5 419,1136 372.5,1056 326,976 312,882 293,746 362,610 q 4,-9 34.5,-50 30.5,-41 32.5,-61 1,-8 -2,-15.5 -3,-7.5 -9.5,-18 Q 411,455 410,453 353,346 353,345 q 16,6 52,25 36,19 66.5,31.5 30.5,12.5 54.5,12.5 6,0 14,-2.5 8,-2.5 12.5,-5 4.5,-2.5 15,-8.5 10.5,-6 11.5,-7 3,-1 13.5,-5.5 10.5,-4.5 17,-9 6.5,-4.5 9.5,-9.5 4,-2 3.5,-24 -0.5,-22 -0.5,-25 3,-36 15,-96 L 517,264 391,213 z m 475,1007 q 35,5 77,5.5 42,0.5 94.5,-2 52.5,-2.5 77.5,-2.5 36,0 105,2.5 69,2.5 124.5,2 55.5,-0.5 104.5,-4.5 29,-3 50,-26 21,-23 19.5,-52 -1.5,-29 -31.5,-46 -18,-11 -45,-13.5 -27,-2.5 -67,0.5 -40,3 -49,3 H 664 q -11,0 -46,-2.5 -35,-2.5 -60,-1 -25,1.5 -44,9.5 -31,13 -37,42 -6,29 12,54.5 18,25.5 48,30.5 z M 522,841 q 24,7 55.5,7.5 31.5,0.5 71.5,-2 40,-2.5 57,-2.5 6,0 18.5,0.5 12.5,0.5 20.5,0.5 8,0 18.5,-1.5 10.5,-1.5 18.5,-4.5 25,-11 34,-37 9,-26 -1.5,-51 -10.5,-25 -35.5,-34 -24,-8 -56.5,-9 -32.5,-1 -74,2 -41.5,3 -57.5,3 -6,0 -19,-0.5 -13,-0.5 -20.5,-0.5 -7.5,0 -18.5,2 -11,2 -19,5 -25,11 -33.5,38 -8.5,27 3,52 11.5,25 38.5,32 z M 1802,-261 q -8,0 -15.5,2 -7.5,2 -14.5,6.5 -7,4.5 -11,7.5 -4,3 -12,10.5 -8,7.5 -12,10.5 -46,40 -126,121 -1,0 -17,18 -16,18 -26.5,26 -10.5,8 -22.5,9 -6,1 -15,-1.5 -9,-2.5 -19.5,-7.5 -10.5,-5 -14.5,-6 -44,-14 -92,-22 -170,-26 -322,28 Q 982,-24 897,49 802,131 772.5,247.5 743,364 783,477.5 823,591 920,669 q 65,51 149.5,81.5 84.5,30.5 172,39 87.5,8.5 177.5,-7.5 90,-16 166.5,-52.5 76.5,-36.5 137.5,-101 61,-64.5 92,-149.5 51,-140 -9,-283 -5,-12 -29,-47 -24,-35 -26,-53 -3,-16 0,-36 3,-20 8.5,-47 5.5,-27 7.5,-36 27,-173 35,-238 z"
         id="path3491" />
    </g>
  </g>
</svg>
