<?xml version="1.0" encoding="UTF-8" standalone="no"?>
<!-- Created with Inkscape (http://www.inkscape.org/) -->

<svg
   xmlns:dc="http://purl.org/dc/elements/1.1/"
   xmlns:cc="http://creativecommons.org/ns#"
   xmlns:rdf="http://www.w3.org/1999/02/22-rdf-syntax-ns#"
   xmlns:svg="http://www.w3.org/2000/svg"
   xmlns="http://www.w3.org/2000/svg"
   xmlns:sodipodi="http://sodipodi.sourceforge.net/DTD/sodipodi-0.dtd"
   xmlns:inkscape="http://www.inkscape.org/namespaces/inkscape"
   width="1000"
   height="1000"
   id="svg2989"
   version="1.1"
   inkscape:version="0.48.3.1 r9886"
   sodipodi:docname="chat.svg">
  <defs
     id="defs5498" />
  <sodipodi:namedview
     inkscape:window-height="1382"
     inkscape:window-width="2496"
     inkscape:pageshadow="2"
     inkscape:pageopacity="0.0"
     borderopacity="1.0"
     bordercolor="#666666"
     pagecolor="#ffffff"
     id="base"
     showgrid="false"
     showguides="true"
     inkscape:guide-bbox="true"
     inkscape:zoom="0.5508046"
     inkscape:cx="-418.73956"
     inkscape:cy="643.75"
     inkscape:window-x="64"
     inkscape:window-y="28"
     inkscape:current-layer="layer1"
     inkscape:window-maximized="1">
    <sodipodi:guide
       orientation="horizontal"
       position="200"
       id="guide5596" />
  </sodipodi:namedview>
  <metadata
     id="metadata5594">
    <rdf:RDF>
      <cc:Work
         rdf:about="">
        <dc:format>image/svg+xml</dc:format>
        <dc:type
           rdf:resource="http://purl.org/dc/dcmitype/StillImage" />
        <dc:title></dc:title>
      </cc:Work>
    </rdf:RDF>
  </metadata>
  <g
     inkscape:label="Layer 1"
     inkscape:groupmode="layer"
     id="layer1">
    <g
       id="g3793"
       transform="matrix(0.49172108,0,0,-0.49172108,32.828914,717.145)">
      <path
         id="path3795"
         d="m 1160,1170 -403,2 q -20,0 -82,2.5 -62,2.5 -86,-1 -24,-3.5 -35,-4 -11,-0.5 -23.5,-2 -12.5,-1.5 -22,-15.5 -9.5,-14 23.5,-71.5 33,-57.5 57.5,-76.5 24.5,-19 42,-27.5 Q 649,968 661,964 l 36,-12 q 0,0 95,-32 l 150,-54 q 8,-3 31.5,-12.5 23.5,-9.5 38.5,-14.5 72,-27 116,11 l 18,16 q 5,6 19,22 l 16,18 q 40,44 99,103 l 71,71 q 77,75 14,88 -14,3 -32.5,2.5 Q 1314,1170 1312,1170 H 1160 z M 499,959.5 q -5,12.5 -37.5,62 -32.5,49.5 -56,75.5 -23.5,26 -48,19 -24.5,-7 -68,-53.5 -43.5,-46.5 -46,-77 Q 241,955 244,927 q 3,-28 10.5,-64 7.5,-36 9.5,-50 L 313,468 Q 333,330 336.5,313.5 340,297 343,282 q 3,-15 13.5,-31 10.5,-16 25.5,12 4,6 6.5,17 2.5,11 6,22.5 3.5,11.5 8.5,34.5 5,23 11,57 6,34 9,45 l 68,360 q 2,7 6,27 4,20 5.5,28 1.5,8 4,25.5 2.5,17.5 1.5,28 -1,10.5 -2.5,25 -1.5,14.5 -6.5,27 z m 1029,81.5 q -20,72 -96,-12 -13,-15 -39,-41 L 1214,806 q -39,-39 -35.5,-58.5 3.5,-19.5 4.5,-27.5 1,-8 14,-30 l 187,-333 q 29,-52 47.5,-69 18.5,-17 72.5,-38 l 25,-11 q 5,-2 34,-15.5 29,-13.5 59,-10.5 23,7 22,36 -1,29 -38.5,264.5 Q 1568,749 1552.5,878 1537,1007 1528,1041 z M 742,837 675,860 q -30,10 -51.5,5 Q 602,860 593,824 584,788 540.5,539 497,290 466,154.5 435,19 434,-24 q -2,-58 78,-27 7,3 22,9 l 709,281 q 80,32 44,97 -162,290 -171.5,308.5 -9.5,18.5 -27.5,48.5 -18,30 -98,57 l -193,67 q -19,7 -55,20 z m 674.5,-655 q -25.5,5 -49,1.5 -23.5,-3.5 -51,-13.5 -27.5,-10 -65,-26.5 Q 1214,127 1201,121 L 884,-4 q -87,-35 -115,-50.5 -28,-15.5 -24,-29 4,-13.5 73.5,-15 69.5,-1.5 93.5,1.5 24,3 65,3 41,0 176.5,6.5 135.5,6.5 214.5,4 79,-2.5 106.5,12.5 27.5,15 42.5,31 l 22,22 q 6,6 24,29 l 19,23 q 47,56 -9,84 -7,3 -22,9.5 -15,6.5 -45,21 -30,14.5 -47,21.5 -17,7 -42.5,12 z M 961,1262 l 334,3 h 200 q 68,0 87.5,-23.5 19.5,-23.5 27.5,-98 8,-74.5 29,-202 21,-127.5 34,-219.5 l 77,-529 q 1,-3 3,-15 12,-78 -12,-110 Q 1717,36 1690.5,9.5 1664,-17 1657,-25 l -79,-86 q -47,-51 -81.5,-57.5 -34.5,-6.5 -74,-8 -39.5,-1.5 -72,-0.5 -32.5,1 -89.5,-1.5 -57,-2.5 -201.5,-7.5 -144.5,-5 -189.5,-7 -45,-2 -123.5,-2.5 Q 668,-196 606,-202 q -62,-6 -130,-6 h -80 -23 q -60,5 -72,79 -1,12 -3.5,33.5 Q 295,-74 294,-67 L 151,932 q -1,5 -3.5,22 -2.5,17 -3.5,25 -8,66 59,130 l 17,17 q 8,8 40,43 76,86 124,93 11,2 24,2.5 13,0.5 26.5,2 13.5,1.5 36,2 22.5,0.5 51.5,-0.5 29,-1 43,-1 z"
         inkscape:connector-curvature="0"
         style="fill:currentColor" />
    </g>
  </g>
</svg>
