<?xml version="1.0" encoding="UTF-8" standalone="no"?>
<!-- Created with Inkscape (http://www.inkscape.org/) -->

<svg
   xmlns:dc="http://purl.org/dc/elements/1.1/"
   xmlns:cc="http://creativecommons.org/ns#"
   xmlns:rdf="http://www.w3.org/1999/02/22-rdf-syntax-ns#"
   xmlns:svg="http://www.w3.org/2000/svg"
   xmlns="http://www.w3.org/2000/svg"
   xmlns:sodipodi="http://sodipodi.sourceforge.net/DTD/sodipodi-0.dtd"
   xmlns:inkscape="http://www.inkscape.org/namespaces/inkscape"
   width="1000"
   height="1000"
   id="svg2989"
   version="1.1"
   inkscape:version="0.48.3.1 r9886"
   sodipodi:docname="fist.svg">
  <defs
     id="defs5498" />
  <sodipodi:namedview
     inkscape:window-height="1389"
     inkscape:window-width="2496"
     inkscape:pageshadow="2"
     inkscape:pageopacity="0.0"
     borderopacity="1.0"
     bordercolor="#666666"
     pagecolor="#ffffff"
     id="base"
     showgrid="false"
     showguides="true"
     inkscape:guide-bbox="true"
     inkscape:zoom="0.5508046"
     inkscape:cx="48.758348"
     inkscape:cy="643.75"
     inkscape:window-x="64"
     inkscape:window-y="28"
     inkscape:current-layer="layer1"
     inkscape:window-maximized="1">
    <sodipodi:guide
       orientation="horizontal"
       position="200"
       id="guide5596" />
  </sodipodi:namedview>
  <metadata
     id="metadata5594">
    <rdf:RDF>
      <cc:Work
         rdf:about="">
        <dc:format>image/svg+xml</dc:format>
        <dc:type
           rdf:resource="http://purl.org/dc/dcmitype/StillImage" />
        <dc:title />
      </cc:Work>
    </rdf:RDF>
  </metadata>
  <g
     inkscape:label="Layer 1"
     inkscape:groupmode="layer"
     id="layer1">
    <g
       transform="matrix(0.58441558,0,0,-0.58441558,-71.266229,886.26948)"
       id="g4">
      <path
         d="m 1021,1244 c -12,3.3333 -23.33333,5 -34,5 -30.66667,0 -57,-12 -79,-36 l -42,-43 c -14,-14.6667 -29,-25.5 -45,-32.5 -16,-7 -43.5,-10.5 -82.5,-10.5 -39,0 -65.5,-2.6667 -79.5,-8 -14,-5.3333 -28.83333,-17 -44.5,-35 -15.66667,-18 -28.16667,-30 -37.5,-36 -9.33333,-6 -27,-9.6667 -53,-11 -26,-1.3333 -43.5,-5.5 -52.5,-12.5 -9,-7 -17.16667,-18.6667 -24.5,-35 C 439.66667,973.16667 435.33333,964.33333 434,963 399.33333,905.66667 370,841.66667 346,771 328.66667,720.33333 319.66667,670.33333 319,621 c 0,-94 31.33333,-187.33333 94,-280 21.33333,-32 40.33333,-51.66667 57,-59 16.66667,-7.33333 33.66667,-10 51,-8 17.33333,2 29.66667,10.83333 37,26.5 7.33333,15.66667 9,32.66667 5,51 -4,18.33333 -13,42.16667 -27,71.5 -14,29.33333 -22.66667,51.33333 -26,66 -8.66667,34.66667 -13,76.66667 -13,126 0,43.33333 3,92.33333 9,147 2.66667,22.66667 8.66667,47 18,73 16.66667,48.66667 34.33333,73 53,73 l 2,0 c 17.33333,-2 26,-18 26,-48 0,-18 -2.66667,-40.66667 -8,-68 -7.33333,-34 -11.33333,-70.66667 -12,-110 0,-18.66667 1,-38 3,-58 13.33333,-153.33333 53.33333,-235 120,-245 18.66667,-2.66667 35.83333,0.16667 51.5,8.5 15.66667,8.33333 25.16667,21.5 28.5,39.5 1.33333,6 2,13.66667 2,23 0,17.33333 -2.33333,40.33333 -7,69 -7.33333,43.33333 -11.66667,71.5 -13,84.5 -1.33333,13 -2,32.16667 -2,57.5 l 0,10 c 0,22.66667 0.33333,48 1,76 0.66667,32 1.16667,55.16667 1.5,69.5 0.33333,14.33333 2,28.83333 5,43.5 3,14.66667 7.5,29.83333 13.5,45.5 6,15.66667 14.83333,28 26.5,37 11.66667,9 25.16667,12.16667 40.5,9.5 12.66667,-2.66667 18.5,-11 17.5,-25 -1,-14 -4.66667,-34.83333 -11,-62.5 -6.33333,-27.66667 -9.83333,-48.83333 -10.5,-63.5 -0.66667,-14.66667 -2.33333,-33.33333 -5,-56 l -7,-63 c -4,-36.66667 -6.33333,-66.33333 -7,-89 0,-11.33333 0.66667,-21 2,-29 3.33333,-24 8,-45 14,-63 12.66667,-37.33333 39.66667,-64.66667 81,-82 18.66667,-8 36.33333,-12 53,-12 8,0 15.66667,1 23,3 42,10.66667 67.8333,31 77.5,61 9.6667,30 15.1667,65 16.5,105 0.6667,11.33333 0.6667,23 0,35 0,31.33333 -1,66 -3,104 -3.3333,52.66667 -5,85.33333 -5,98 0,12.66667 -0.6667,26 -2,40 -1.3333,11.33333 -2,22 -2,32 0,14 1,27.33333 3,40 3.3333,20.66667 18,31.33333 44,32 l 4,0 c 34.6667,0 52,-17 52,-51 0,-10.66667 -1.6667,-23.33333 -5,-38 l -9,-34 c -8.6667,-36.66667 -13,-83.33333 -13,-140 0,-29.33333 1.3333,-61 4,-95 0,-2.66667 0.3333,-8 1,-16 0.6667,-8 1,-13.33333 1,-16 1.3333,-14 2.6667,-23.33333 4,-28 14,-36 37.3333,-55.66667 70,-59 12,-1.33333 23.5,-1.83333 34.5,-1.5 11,0.33333 23.5,0.5 37.5,0.5 14,0 38.6667,5.5 74,16.5 35.3333,11 57.6667,28.5 67,52.5 6,16 8.8333,34.5 8.5,55.5 -0.3333,21 -0.5,40.66667 -0.5,59 0,18.33333 -5.3333,59.5 -16,123.5 -10.6667,64 -16.5,101.16667 -17.5,111.5 -1,10.33333 -1.8333,26.33333 -2.5,48 -0.6667,21.66667 -1.3333,41.66667 -2,60 -0.6667,18.3333 -2,38.8333 -4,61.5 -4,41.3333 -15.6667,77.6667 -35,109 -18.6667,30 -49,45 -91,45 l -4,0 c -14,-0.6667 -29.6667,-6.3333 -47,-17 l -50,-32 c -12.6667,-8 -24.3333,-11.6667 -35,-11 -10.6667,0 -21,3.3333 -31,10 -7.3333,5.3333 -15.5,12.6667 -24.5,22 -9,9.3333 -19.1667,18.5 -30.5,27.5 -11.3333,9 -29.3333,16.8333 -54,23.5 z M 1379,149 c 88,0 167.3333,55.66667 238,167 12.6667,20.66667 19,41.66667 19,63 0,12.66667 -2.3333,25.66667 -7,39 -11.3333,30 -34,45 -68,45 -18.6667,0 -40.3333,-4.33333 -65,-13 l -27,-10 c -5.3333,-2 -14,-5.33333 -26,-10 l -21,-8 c -22,-8.66667 -50.6667,-18 -86,-28 l -93,-23 c -98.6667,-24.66667 -165.3333,-69.66667 -200,-135 -10.6667,-20 -16,-39.33333 -16,-58 0,-22 8,-43 24,-63 11.3333,-14 31,-25.333333 59,-34 18.6667,-6 37.6667,-8.666667 57,-8 9.3333,0 19,0.666667 29,2 28.6667,4 46.6667,15 54,33 12.6667,28.66667 19,55.33333 19,80 0,9.33333 -1,18 -3,26 -1.3333,3.33333 -6.8333,11.83333 -16.5,25.5 -9.6667,13.66667 -13.3333,24.5 -11,32.5 2.3333,8 7.5,12.66667 15.5,14 l 4,0 c 24,0 51,-22.66667 81,-68 16.6667,-25.33333 30,-48.33333 40,-69 z"
         id="path6"
         inkscape:connector-curvature="0"
         style="fill:currentColor"
         sodipodi:nodetypes="csccssssssssccccssssscsccscsccccscscssscsssscsssccccccscscccscsccssccscscccssscssssssccscccccsscccscscccccccscccccscsscscc" />
    </g>
  </g>
</svg>
