<?xml version="1.0" encoding="UTF-8" standalone="no"?>
<!-- Created with Inkscape (http://www.inkscape.org/) -->

<svg
   xmlns:dc="http://purl.org/dc/elements/1.1/"
   xmlns:cc="http://creativecommons.org/ns#"
   xmlns:rdf="http://www.w3.org/1999/02/22-rdf-syntax-ns#"
   xmlns:svg="http://www.w3.org/2000/svg"
   xmlns="http://www.w3.org/2000/svg"
   xmlns:sodipodi="http://sodipodi.sourceforge.net/DTD/sodipodi-0.dtd"
   xmlns:inkscape="http://www.inkscape.org/namespaces/inkscape"
   width="1000"
   height="1000"
   id="svg2989"
   version="1.1"
   inkscape:version="0.48.3.1 r9886"
   sodipodi:docname="gear.svg">
  <defs
     id="defs5498" />
  <sodipodi:namedview
     inkscape:window-height="1382"
     inkscape:window-width="2496"
     inkscape:pageshadow="2"
     inkscape:pageopacity="0.0"
     borderopacity="1.0"
     bordercolor="#666666"
     pagecolor="#ffffff"
     id="base"
     showgrid="false"
     showguides="true"
     inkscape:guide-bbox="true"
     inkscape:zoom="0.5508046"
     inkscape:cx="-418.73956"
     inkscape:cy="643.75"
     inkscape:window-x="64"
     inkscape:window-y="28"
     inkscape:current-layer="layer1"
     inkscape:window-maximized="1">
    <sodipodi:guide
       orientation="horizontal"
       position="200"
       id="guide5596" />
  </sodipodi:namedview>
  <metadata
     id="metadata5594">
    <rdf:RDF>
      <cc:Work
         rdf:about="">
        <dc:format>image/svg+xml</dc:format>
        <dc:type
           rdf:resource="http://purl.org/dc/dcmitype/StillImage" />
        <dc:title></dc:title>
      </cc:Work>
    </rdf:RDF>
  </metadata>
  <g
     inkscape:label="Layer 1"
     inkscape:groupmode="layer"
     id="layer1">
    <g
       transform="matrix(0.44012838,0,0,-0.44012838,81.878039,736.38838)"
       id="g3228">
      <path
         style="fill:currentColor"
         inkscape:connector-curvature="0"
         d="m 700,868 q 0,7 9,7 14,0 60,-16 l 47,-16 10,-64 q 11,-63 16,-89.5 5,-26.5 46,-60.5 l 41,-34 61,20 q 60,19 75,19 6,0 16.5,-15 10.5,-15 19.5,-36 l 23,-51 -52,-53 -51,-54 7,-57 q 5,-40 15.5,-57 10.5,-17 51.5,-56 25,-23 42.5,-43 17.5,-20 17.5,-25 0,-12 -16,-53 -10,-24 -19.5,-33.5 Q 1110,91 1089,91 q -20,0 -68,10 -19,3 -26,3 -12,0 -20.5,-7.5 Q 966,89 947,62 922,28 917.5,10 913,-8 913,-76 v -94 l -49,-24 -48,-25 -61,49 q -34,28 -53,38.5 -19,10.5 -43,10.5 -16,0 -46,-5 -23,-5 -39.5,-18 -16.5,-13 -45.5,-49 l -50,-62 -51,17 q -51,16 -58,25.5 -7,9.5 -7,82.5 v 74 l -44,31 Q 294,-7 282,-1.5 270,4 252,4 240,4 209,0 q -65,-6 -80,-10 -2,-1 -3,-1 -15,0 -39,45 -1,3 -5,10 -4,7 -5.5,9.5 -1.5,2.5 -3.5,7 -2,4.5 -3,7 -1,2.5 -1.5,5.5 -0.5,3 -0.5,6 0,11 8.5,23 8.5,12 34.5,45 8,9 12,15 21,25 27.5,37 6.5,12 6.5,27 0,11 -3,33 -5,34 -15.5,52 Q 128,329 89,369 l -58,60 12,49 q 11,49 18.5,53.5 7.5,4.5 86.5,11.5 28,2 39.5,3.5 11.5,1.5 23.5,3.5 12,2 19,8.5 7,6.5 13.5,12.5 6.5,6 18.5,21 l 35,43 -11,62 q -10,55 -10,73 0,18 7.5,27 7.5,9 29.5,20 38,19 51,19 12,0 73,-46 37,-27 50.5,-34.5 13.5,-7.5 30.5,-7.5 10,0 36,3 37,5 53,14 16,9 47,45 46,51 46,58 z M 661,550 q -43,13 -80,13 -87,0 -160,-73 -75,-75 -75,-164 0,-58 31,-124 30,-61 88,-95 58,-34 125,-34 57,0 108,24 51,24 86,70 50,65 50,148 0,79 -47,145.5 Q 740,527 661,550 z m 779,882 44,52 44,-17 q 3,0 6,-2 13,-4 18.5,-6 5.5,-2 12,-8 6.5,-6 8.5,-9 2,-3 5.5,-15 3.5,-12 5,-21.5 1.5,-9.5 5.5,-33.5 1,-7 2,-10 7,-47 14.5,-62.5 7.5,-15.5 29.5,-33.5 l 33,-25 64,16 q 53,13 65,13 l 1,-1 q 3,-2 22,-41 l 20,-38 -46,-51 -46,-51 9,-47 q 6,-29 17.5,-48 11.5,-19 42.5,-50 l 52,-50 -15,-49 q -10,-27 -15,-35.5 -5,-8.5 -15,-8.5 -4,0 -11,2 -62,12 -77,12 -15,0 -23,-6.5 -8,-6.5 -24,-26.5 -22,-28 -26.5,-45.5 Q 1658,718 1658,660 v -82 l -42,-22 -41,-22 -55,44 q -32,27 -45.5,34.5 -13.5,7.5 -30.5,7.5 -9,0 -26,-2 -34,-4 -51,-16 -17,-12 -59,-64 -14,-16 -20.5,-21.5 -6.5,-5.5 -16.5,-5.5 -8,0 -35,7 -12,3 -16.5,4 -4.5,1 -12,5 -7.5,4 -9.5,4.5 -2,0.5 -6,8.5 -4,8 -5,11 -1,3 -3,16 -2,13 -3,20.5 -1,7.5 -2,29.5 -5,47 -11,60 -6,13 -32,30 -18,11 -27.5,15 -9.5,4 -24.5,4 -13,0 -51,-5 -53,-7 -65,-7 h -2 q -1,2 -22,38.5 -21,36.5 -21,44.5 0,8 39,51 24,24 30,35.5 6,11.5 6,29.5 0,10 -1,30 -4,38 -12,53.5 -8,15.5 -43,49.5 l -52,48 13,39 q 15,43 28.5,52.5 13.5,9.5 63.5,9.5 44,0 57.5,5 13.5,5 36.5,33 18,20 24,30.5 6,10.5 6,22.5 0,8 -4,26 -9,46 -9,66 0,21 8,31.5 8,10.5 27,19.5 34,16 44,16 10,0 62,-39 29,-21 41.5,-28 12.5,-7 28.5,-7 9,0 29,3 33,4 48,13.5 15,9.5 46,44.5 z m 35,-244 q -24,16 -98,16 -50,0 -68.5,-4.5 -18.5,-4.5 -45.5,-24.5 -16,-12 -36,-32.5 -20,-20.5 -31,-37.5 -17,-26 -22,-45.5 -5,-19.5 -5,-63.5 0,-46 5.5,-65 5.5,-19 23.5,-46 13,-18 32.5,-37.5 19.5,-19.5 34.5,-29.5 25,-16 45,-20.5 20,-4.5 68,-4.5 47,0 67,4.5 20,4.5 46,22.5 91,59 97,166 1,9 1,17 0,57 -27,100.5 -27,43.5 -87,84.5 z"
         id="path3230" />
    </g>
  </g>
</svg>
