<?xml version="1.0" encoding="UTF-8" standalone="no"?>
<!-- Created with Inkscape (http://www.inkscape.org/) -->

<svg
   xmlns:dc="http://purl.org/dc/elements/1.1/"
   xmlns:cc="http://creativecommons.org/ns#"
   xmlns:rdf="http://www.w3.org/1999/02/22-rdf-syntax-ns#"
   xmlns:svg="http://www.w3.org/2000/svg"
   xmlns="http://www.w3.org/2000/svg"
   xmlns:sodipodi="http://sodipodi.sourceforge.net/DTD/sodipodi-0.dtd"
   xmlns:inkscape="http://www.inkscape.org/namespaces/inkscape"
   width="1000"
   height="1000"
   id="svg2989"
   version="1.1"
   inkscape:version="0.48.3.1 r9886"
   sodipodi:docname="heart.svg">
  <defs
     id="defs5498" />
  <sodipodi:namedview
     inkscape:window-height="1389"
     inkscape:window-width="2496"
     inkscape:pageshadow="2"
     inkscape:pageopacity="0.0"
     borderopacity="1.0"
     bordercolor="#666666"
     pagecolor="#ffffff"
     id="base"
     showgrid="false"
     showguides="true"
     inkscape:guide-bbox="true"
     inkscape:zoom="0.5508046"
     inkscape:cx="-669.28213"
     inkscape:cy="643.75"
     inkscape:window-x="64"
     inkscape:window-y="28"
     inkscape:current-layer="layer1"
     inkscape:window-maximized="1">
    <sodipodi:guide
       orientation="horizontal"
       position="200"
       id="guide5596" />
  </sodipodi:namedview>
  <metadata
     id="metadata5594">
    <rdf:RDF>
      <cc:Work
         rdf:about="">
        <dc:format>image/svg+xml</dc:format>
        <dc:type
           rdf:resource="http://purl.org/dc/dcmitype/StillImage" />
        <dc:title />
      </cc:Work>
    </rdf:RDF>
  </metadata>
  <g
     inkscape:label="Layer 1"
     inkscape:groupmode="layer"
     id="layer1">
    <path
       d="M 492.39007,875 725.30086,602.53624 C 806.0819,506.88406 844.53759,456.40097 840.6679,451.08697 c 35.7952,-58.93719 53.69278,-113.52657 53.69278,-163.76812 0,-35.26571 -8.70695,-68.59905 -26.12078,-99.99999 -16.44647,-29.46863 -36.27895,-52.41544 -59.49751,-68.84058 -33.37656,-25.60384 -68.68812,-38.40581 -105.93446,-38.40581 -9.19069,0 -18.86506,0.72464 -29.02316,2.17392 -45.9533,7.7295 -85.13455,29.46862 -117.54377,65.2174 -33.86035,37.19804 -52.72538,80.67631 -56.59515,130.43476 -5.3209,-10.62801 -13.30226,-28.74395 -23.94409,-54.34782 C 465.05994,197.9469 453.69255,175.00002 441.59956,154.71016 425.1531,128.14009 401.69274,107.6087 371.21843,93.11595 345.5813,81.03864 320.42791,75 295.75823,75 c -21.76737,0 -43.05101,4.83095 -63.85094,14.49275 -41.59984,19.80675 -74.00902,51.69081 -97.22754,95.65218 -19.83248,37.68117 -29.50688,75.60388 -29.02315,113.76812 0,44.44445 13.30228,89.37198 39.90683,134.78261 l 18.86505,31.88406 c 4.35347,7.24638 12.33484,18.11593 23.94411,32.60868 l 31.92544,41.30436 c 10.15811,13.04347 15.47902,19.56522 15.96274,19.56522 l 109.56241,132.60868 z"
       id="path3001"
       inkscape:connector-curvature="0"
       style="fill:currentColor"
       sodipodi:nodetypes="cccsccscccsccscccccccccc" />
  </g>
</svg>
