<?xml version="1.0" encoding="UTF-8" standalone="no"?>
<!-- Created with Inkscape (http://www.inkscape.org/) -->

<svg
   xmlns:dc="http://purl.org/dc/elements/1.1/"
   xmlns:cc="http://creativecommons.org/ns#"
   xmlns:rdf="http://www.w3.org/1999/02/22-rdf-syntax-ns#"
   xmlns:svg="http://www.w3.org/2000/svg"
   xmlns="http://www.w3.org/2000/svg"
   xmlns:sodipodi="http://sodipodi.sourceforge.net/DTD/sodipodi-0.dtd"
   xmlns:inkscape="http://www.inkscape.org/namespaces/inkscape"
   width="1000"
   height="1000"
   id="svg2989"
   version="1.1"
   inkscape:version="0.48.3.1 r9886"
   sodipodi:docname="shield.svg">
  <defs
     id="defs5498" />
  <sodipodi:namedview
     inkscape:window-height="1389"
     inkscape:window-width="2496"
     inkscape:pageshadow="2"
     inkscape:pageopacity="0.0"
     borderopacity="1.0"
     bordercolor="#666666"
     pagecolor="#ffffff"
     id="base"
     showgrid="false"
     showguides="true"
     inkscape:guide-bbox="true"
     inkscape:zoom="0.5508046"
     inkscape:cx="-430.54048"
     inkscape:cy="643.75"
     inkscape:window-x="64"
     inkscape:window-y="28"
     inkscape:current-layer="layer1"
     inkscape:window-maximized="1">
    <sodipodi:guide
       orientation="horizontal"
       position="200"
       id="guide5596" />
  </sodipodi:namedview>
  <metadata
     id="metadata5594">
    <rdf:RDF>
      <cc:Work
         rdf:about="">
        <dc:format>image/svg+xml</dc:format>
        <dc:type
           rdf:resource="http://purl.org/dc/dcmitype/StillImage" />
        <dc:title />
      </cc:Work>
    </rdf:RDF>
  </metadata>
  <g
     inkscape:label="Layer 1"
     inkscape:groupmode="layer"
     id="layer1">
    <path
       d="m 506.02678,455.5967 c -11.60717,1.33755 -27.56703,3.90118 -47.87956,7.69093 -20.31254,3.78973 -41.85278,7.24506 -64.62069,10.36602 -6.69644,0.89169 -13.83931,1.56047 -21.42861,2.00632 -17.41075,0 -36.60723,-2.89802 -57.58942,-8.69408 -2.23214,-0.44586 -9.1518,-1.78342 -20.75897,-4.01267 -11.60717,-2.22924 -20.08933,-5.68459 -25.44648,-10.36602 -5.35716,-4.68143 -9.26341,-12.14943 -11.71878,-22.40399 -2.45536,-10.25455 -4.01786,-23.63006 -4.68751,-40.12655 -0.66965,-16.49646 -1.11607,-25.97078 -1.33929,-28.42296 -0.2232,-2.45219 -1.33929,-9.02848 -3.34822,-19.72889 -2.00893,-10.70041 -3.90626,-22.9613 -5.69198,-36.78267 -1.78572,-13.82137 -0.55802,-24.4103 3.68305,-31.76684 4.24108,-7.35655 9.1518,-13.1526 14.73217,-17.38818 5.58037,-4.23557 10.26788,-7.468 14.06253,-9.69726 3.79466,-2.22922 9.93306,-5.3502 18.41522,-9.36285 8.92859,-4.01266 13.83933,-6.24188 14.73217,-6.68776 73.21445,-35.66803 139.50924,-53.94794 198.88437,-54.83961 z m 1.33929,314.32461 0,-224.70865 c 0,-2.22925 -0.33482,-7.91386 -1.00446,-17.0538 -0.66965,-9.13993 -1.11608,-20.06326 -1.33929,-32.77 -0.22322,-12.70675 2.79018,-20.62059 9.0402,-23.74154 6.25001,-3.12096 12.72324,-4.90436 19.41968,-5.35022 0.89286,0 14.95537,2.45219 42.18761,7.35655 l 24.10718,2.67509 c 13.83934,1.78341 26.78577,2.6751 38.83937,2.6751 17.85722,0 34.37506,-1.78338 49.55369,-5.35019 l 36.83044,-2.00633 c -5.35715,37.8973 -18.52685,76.9092 -39.50902,117.03576 -20.98217,40.12654 -47.32157,76.57482 -79.01803,109.34485 -31.69648,32.77001 -64.73232,56.73448 -99.10737,71.89338 z M 204.68684,139.93452 c -2.23215,1.33755 -8.25895,4.7929 -18.0804,10.36603 -9.82145,5.57311 -19.97772,11.59208 -30.46883,18.05695 -10.49109,6.46485 -17.74557,14.82454 -21.76343,25.07909 -4.01787,10.25453 -6.25002,22.73837 -6.69644,37.45144 -0.44643,5.79608 -0.66965,11.14628 -0.66965,16.05062 0,8.0253 0.22322,15.15892 0.66965,21.40083 0.89286,10.7004 2.56697,24.85617 5.02232,42.46726 2.45538,17.61109 4.12948,29.31467 5.02234,35.11073 19.19648,193.49912 84.59841,341.96735 196.2058,445.40467 38.39294,36.1139 75.00015,62.642 109.82166,79.58432 33.92865,16.49648 52.9019,24.52174 56.91976,24.07594 l 13.3929,0 c 37.94654,-5.35022 87.72341,-34.33049 149.33068,-86.94085 61.60729,-52.61037 110.1565,-119.15357 145.64766,-199.62958 35.4911,-80.47602 55.24563,-164.40738 59.26352,-251.79409 2.67859,-46.81431 4.01789,-79.36139 4.01789,-97.64127 l 0,-35.44513 c 0,-2.67508 0.22318,-5.12729 0.66964,-7.35652 0,-22.2925 -5.58037,-37.89731 -16.74111,-46.81431 -12.50004,-9.80873 -21.98667,-16.38501 -28.45987,-19.72889 -6.4733,-3.34387 -16.18314,-8.2482 -29.12958,-14.71306 L 776.5631,123.8839 C 689.06288,77.961264 603.57167,55.000006 520.08932,55.000006 c -20.08934,0 -39.95544,1.33755 -59.59835,4.01265 -102.23238,13.37551 -187.50041,40.349448 -255.80413,80.921864 z"
       id="path2989"
       inkscape:connector-curvature="0"
       style="fill:currentColor"
       sodipodi:nodetypes="cscccsssssssssscccccsssscccsccssccssscscscccccsscssccsscscc" />
  </g>
</svg>
