<?xml version="1.0" encoding="UTF-8" standalone="no"?>
<!-- Created with Inkscape (http://www.inkscape.org/) -->

<svg
   xmlns:dc="http://purl.org/dc/elements/1.1/"
   xmlns:cc="http://creativecommons.org/ns#"
   xmlns:rdf="http://www.w3.org/1999/02/22-rdf-syntax-ns#"
   xmlns:svg="http://www.w3.org/2000/svg"
   xmlns="http://www.w3.org/2000/svg"
   xmlns:sodipodi="http://sodipodi.sourceforge.net/DTD/sodipodi-0.dtd"
   xmlns:inkscape="http://www.inkscape.org/namespaces/inkscape"
   width="1000"
   height="1000"
   id="svg2989"
   version="1.1"
   inkscape:version="0.48.3.1 r9886"
   sodipodi:docname="shield.svg">
  <defs
     id="defs5498" />
  <sodipodi:namedview
     inkscape:window-height="1389"
     inkscape:window-width="2496"
     inkscape:pageshadow="2"
     inkscape:pageopacity="0.0"
     borderopacity="1.0"
     bordercolor="#666666"
     pagecolor="#ffffff"
     id="base"
     showgrid="false"
     showguides="true"
     inkscape:guide-bbox="true"
     inkscape:zoom="0.5508046"
     inkscape:cx="-191.79883"
     inkscape:cy="643.75"
     inkscape:window-x="64"
     inkscape:window-y="28"
     inkscape:current-layer="layer1"
     inkscape:window-maximized="1">
    <sodipodi:guide
       orientation="horizontal"
       position="200"
       id="guide5596" />
  </sodipodi:namedview>
  <metadata
     id="metadata5594">
    <rdf:RDF>
      <cc:Work
         rdf:about="">
        <dc:format>image/svg+xml</dc:format>
        <dc:type
           rdf:resource="http://purl.org/dc/dcmitype/StillImage" />
        <dc:title />
      </cc:Work>
    </rdf:RDF>
  </metadata>
  <g
     inkscape:label="Layer 1"
     inkscape:groupmode="layer"
     id="layer1">
    <path
       d="m 505.25974,483.06625 c -10.12987,1.16732 -24.05845,3.40466 -41.78571,6.71207 -17.72727,3.30739 -36.52598,6.32295 -56.39611,9.04669 -5.84416,0.7782 -12.07792,1.36186 -18.70129,1.75097 -15.19481,0 -31.94806,-2.52918 -50.25975,-7.58755 -1.94805,-0.38911 -7.98701,-1.55643 -18.11688,-3.50195 -10.12987,-1.94552 -17.53247,-4.96109 -22.20779,-9.04669 -4.67533,-4.0856 -8.08441,-10.60312 -10.22727,-19.55253 -2.14286,-8.94941 -3.50649,-20.62256 -4.09091,-35.01946 -0.58442,-14.39688 -0.97403,-22.66536 -1.16884,-24.80544 -0.19479,-2.14008 -1.16883,-7.87938 -2.92207,-17.2179 -1.75325,-9.33852 -3.40909,-20.03891 -4.96754,-32.10117 -1.55844,-12.06226 -0.487,-21.30349 3.21429,-27.72373 3.7013,-6.42024 7.98701,-11.4786 12.85714,-15.1751 4.87013,-3.69649 8.96104,-6.51751 12.27273,-8.46304 3.31169,-1.9455 8.66883,-4.66926 16.07143,-8.1712 7.79221,-3.50195 12.07793,-5.44745 12.85714,-5.83658 63.8961,-31.12839 121.75325,-47.08173 173.57143,-47.85992 z m 1.16883,274.31906 0,-196.10894 c 0,-1.94552 -0.29221,-6.90662 -0.87662,-14.88328 -0.58442,-7.97665 -0.97403,-17.50972 -1.16883,-28.59921 -0.19481,-11.0895 2.43506,-17.99611 7.88961,-20.71985 5.45454,-2.72373 11.1039,-4.28015 16.94805,-4.66926 0.77922,0 13.05193,2.14008 36.81819,6.42024 l 21.03895,2.33462 c 12.07794,1.55643 23.37662,2.33463 33.89611,2.33463 15.58444,0 29.99998,-1.55641 43.24675,-4.66925 l 32.14286,-1.75098 c -4.67532,33.07394 -16.16885,67.12062 -34.48052,102.14008 -18.31167,35.01945 -41.29873,66.82879 -68.96104,95.42802 -27.66232,28.59922 -56.49353,49.51362 -86.49351,62.74318 z M 242.27273,207.57987 c -1.94805,1.16732 -7.20779,4.18289 -15.77922,9.04669 -8.57143,4.8638 -17.43506,10.11671 -26.59092,15.75876 -9.15584,5.64204 -15.48701,12.93776 -18.9935,21.88716 -3.5065,8.94939 -5.45454,19.84435 -5.84415,32.68482 -0.38961,5.05839 -0.58442,9.72764 -0.58442,14.00778 0,7.00389 0.19481,13.22958 0.58442,18.67705 0.77922,9.33851 2.24026,21.69261 4.38311,37.06225 2.14287,15.36965 3.6039,25.58366 4.38312,30.64203 16.75325,168.87159 73.83117,298.44357 171.23377,388.71595 33.50649,31.51751 65.45454,54.66926 95.84415,69.45525 29.61039,14.39689 46.16883,21.40078 49.67532,21.01168 l 11.68832,0 c 33.1169,-4.66927 76.55844,-29.96109 130.32467,-75.87549 53.76624,-45.9144 96.13637,-103.98833 127.1104,-174.22179 30.97402,-70.23346 48.21428,-143.48249 51.72077,-219.74708 2.33766,-40.85604 3.50649,-69.2607 3.50649,-85.21401 l 0,-30.93386 c 0,-2.33462 0.19479,-4.47472 0.58442,-6.42023 0,-19.45523 -4.87011,-33.07394 -14.61039,-40.85603 -10.90911,-8.56033 -19.18829,-14.29961 -24.83766,-17.2179 -5.64937,-2.91828 -14.1234,-7.19842 -25.42208,-12.84046 l -19.28571,-9.63035 c -76.36366,-40.07785 -150.97401,-60.11673 -223.83117,-60.11673 -17.53247,0 -34.87013,1.16731 -52.01299,3.50194 -89.22078,11.67315 -163.63636,35.21399 -223.24675,70.62257 z"
       id="path2989"
       inkscape:connector-curvature="0"
       style="fill:currentColor"
       sodipodi:nodetypes="cscccsssssssssscccccsssscccsccssccssscscscccccsscssccsscscc" />
  </g>
</svg>
