<?xml version="1.0" encoding="UTF-8" standalone="no"?>
<!-- Created with Inkscape (http://www.inkscape.org/) -->

<svg
   xmlns:dc="http://purl.org/dc/elements/1.1/"
   xmlns:cc="http://creativecommons.org/ns#"
   xmlns:rdf="http://www.w3.org/1999/02/22-rdf-syntax-ns#"
   xmlns:svg="http://www.w3.org/2000/svg"
   xmlns="http://www.w3.org/2000/svg"
   xmlns:sodipodi="http://sodipodi.sourceforge.net/DTD/sodipodi-0.dtd"
   xmlns:inkscape="http://www.inkscape.org/namespaces/inkscape"
   width="1000"
   height="1000"
   id="svg2989"
   version="1.1"
   inkscape:version="0.48.3.1 r9886"
   sodipodi:docname="suit.svg">
  <defs
     id="defs5498" />
  <sodipodi:namedview
     inkscape:window-height="1382"
     inkscape:window-width="2496"
     inkscape:pageshadow="2"
     inkscape:pageopacity="0.0"
     borderopacity="1.0"
     bordercolor="#666666"
     pagecolor="#ffffff"
     id="base"
     showgrid="false"
     showguides="true"
     inkscape:guide-bbox="true"
     inkscape:zoom="0.5508046"
     inkscape:cx="-418.73956"
     inkscape:cy="643.75"
     inkscape:window-x="64"
     inkscape:window-y="28"
     inkscape:current-layer="layer1"
     inkscape:window-maximized="1">
    <sodipodi:guide
       orientation="horizontal"
       position="200"
       id="guide5596" />
  </sodipodi:namedview>
  <metadata
     id="metadata5594">
    <rdf:RDF>
      <cc:Work
         rdf:about="">
        <dc:format>image/svg+xml</dc:format>
        <dc:type
           rdf:resource="http://purl.org/dc/dcmitype/StillImage" />
        <dc:title></dc:title>
      </cc:Work>
    </rdf:RDF>
  </metadata>
  <g
     inkscape:label="Layer 1"
     inkscape:groupmode="layer"
     id="layer1">
    <g
       transform="matrix(0.46125437,0,0,-0.46125437,61.933272,739.9539)"
       id="g3363">
      <path
         style="fill:currentColor"
         inkscape:connector-curvature="0"
         d="m 1012,529 -8,273 q 0,130 27,166 l 48,64 q 22,30 26,59.5 4,29.5 3.5,65.5 -0.5,36 -12.5,73.5 -12,37.5 -30,67.5 -18,30 -48.5,49 -30.5,19 -68,19 -37.5,0 -68,-19 -30.5,-19 -48,-49 -17.5,-30 -30.5,-67 -19,-60 -9,-142 5,-27 26,-57 l 42,-56 q 33,-44 33.5,-142 0.5,-98 -4,-181 Q 887,570 887,529 v -820 q -129,-19 -294,48 -102,41 -86,113 5,21 14,46 9,25 14.5,48.5 5.5,23.5 11,62.5 5.5,39 11.5,92.5 6,53.5 13.5,111 7.5,57.5 -1,120 -8.5,62.5 -9.5,71 -1,8.5 -1.5,12 -0.5,3.5 -2,11 -1.5,7.5 -3.5,11.5 -2,4 -5,9 -6,10 -21,15.5 -15,5.5 -34.5,-4 Q 474,467 457,445 392,363 379,282.5 366,202 366,151 369,-2 354,-76 q -5,-28 -38,-44 -33,-16 -70.5,-14.5 Q 208,-133 189,-114 170,-95 158.5,-61.5 147,-28 144,-0.5 141,27 138.5,69 q -2.5,42 -6.5,69.5 -4,27.5 -4.5,65 -0.5,37.5 5,74.5 5.5,37 11.5,66.5 6,29.5 18.5,69.5 12.5,40 21.5,65 l 51,141 q 9,26 24.5,74 15.5,48 25.5,77.5 10,29.5 27,67.5 67,160 178,194 53,16 77,19 43,5 55.5,21.5 12.5,16.5 14.5,46 2,29.5 -1,65.5 -3,36 2,80 5,44 41,108.5 36,64.5 96.5,108 60.5,43.5 134.5,48.5 129,9 227,-62 98,-71 122,-198 6,-30 2,-64 -13,-129 35,-147 12,-4 30.5,-6.5 18.5,-2.5 41.5,-8.5 23,-6 41,-11 59,-18 90.5,-54 31.5,-36 58.5,-81 70,-117 146,-331 54,-152 60,-227 12,-155 6,-192.5 -6,-37.5 -9,-77.5 -3,-40 -6,-66.5 -3,-26.5 -13,-59 -10,-32.5 -27,-53 -17,-20.5 -55,-25 -38,-4.5 -72,10 -34,14.5 -44.5,51.5 -10.5,37 -13.5,102 -3,65 -1,116 6,134 -38,225 -67,133 -134,103 -27,-12 -35,-103 -8,-91 1.5,-210.5 9.5,-119.5 22.5,-172 13,-52.5 22,-77.5 21,-57 15,-83 -11,-42 -108.5,-80.5 Q 1177,-291 1012,-291 v 820 z"
         id="path3365" />
    </g>
  </g>
</svg>
