<?xml version="1.0" encoding="UTF-8" standalone="no"?>
<!-- Created with Inkscape (http://www.inkscape.org/) -->

<svg
   xmlns:dc="http://purl.org/dc/elements/1.1/"
   xmlns:cc="http://creativecommons.org/ns#"
   xmlns:rdf="http://www.w3.org/1999/02/22-rdf-syntax-ns#"
   xmlns:svg="http://www.w3.org/2000/svg"
   xmlns="http://www.w3.org/2000/svg"
   xmlns:sodipodi="http://sodipodi.sourceforge.net/DTD/sodipodi-0.dtd"
   xmlns:inkscape="http://www.inkscape.org/namespaces/inkscape"
   width="1000"
   height="1000"
   id="svg2989"
   version="1.1"
   inkscape:version="0.48.3.1 r9886"
   sodipodi:docname="target.svg">
  <defs
     id="defs5498" />
  <sodipodi:namedview
     inkscape:window-height="1389"
     inkscape:window-width="2496"
     inkscape:pageshadow="2"
     inkscape:pageopacity="0.0"
     borderopacity="1.0"
     bordercolor="#666666"
     pagecolor="#ffffff"
     id="base"
     showgrid="false"
     showguides="true"
     inkscape:guide-bbox="true"
     inkscape:zoom="0.5508046"
     inkscape:cx="-669.28213"
     inkscape:cy="643.75"
     inkscape:window-x="64"
     inkscape:window-y="28"
     inkscape:current-layer="layer1"
     inkscape:window-maximized="1">
    <sodipodi:guide
       orientation="horizontal"
       position="200"
       id="guide5596" />
  </sodipodi:namedview>
  <metadata
     id="metadata5594">
    <rdf:RDF>
      <cc:Work
         rdf:about="">
        <dc:format>image/svg+xml</dc:format>
        <dc:type
           rdf:resource="http://purl.org/dc/dcmitype/StillImage" />
        <dc:title />
      </cc:Work>
    </rdf:RDF>
  </metadata>
  <g
     inkscape:label="Layer 1"
     inkscape:groupmode="layer"
     id="layer1">
    <g
       transform="matrix(0.54282268,0,0,-0.54249547,-15.681546,818.12839)"
       id="g2999">
      <path
         d="m 121,631 q 0,152 55,296 55,145 159,260 101,111 234,182 180,93 381,93 177,0 338,-73 152,-68 268,-193 102,-107 161,-250 62,-150 62,-315 0,-159 -61,-311 -61,-149 -168,-260 -93,-98 -214,-162 -180,-95 -386,-95 -167,0 -317,63 Q 463,-64 337,74 223,200 166,364 121,496 121,631 z m 787,151 q 41,13 84,-1 60,-19 92,-67 10,-15 18,-42 8,-27 8,-42 0,-15 -8,-42 -8,-27 -18,-42 -20,-30 -50,-50 -15,-10 -42,-18 -27,-8 -42,-8 -15,0 -42,8 -27,8 -42,18 -30,20 -50,50 -10,15 -18,42 -8,27 -8,42 0,15 8,42 8,27 18,42 32,48 92,68 z m 2,342 q 9,3 57.5,0.5 48.5,-2.5 67.5,-6.5 71,-13 141,-49 89,-46 152.5,-121 63.5,-75 93.5,-172 22,-70 22,-146 0,-76 -22,-146 Q 1384,365 1299.5,280.5 1215,196 1096,158 1026,136 950,136 874,136 804,158 685,196 600.5,280.5 516,365 478,484 q -22,70 -22,146 0,76 22,146 30,97 94,172 64,75 152,121 78,40 151,50 30,4 35,5 z m 71,-168 q -30,3 -36,3 Q 833,952 745,883 684,835 650,755 616,675 624,599 638,481 720,399.5 802,318 919,304 q 76,-8 156,26 80,34 128,95 40,51 60,115 20,64 13,121 -14,116 -95.5,198.5 Q 1099,942 981,956 z m 10,337 q -42,3 -90,-2 Q 743,1278 609.5,1198 476,1118 392,987 336,901 308,792.5 280,684 287,589 306,379 427.5,222 549,65 744,1 950,-68 1156,1 1308,51 1418.5,161.5 1529,272 1579,424 q 69,206 0,412 -50,152 -160.5,262.5 Q 1308,1209 1156,1259 q -77,26 -165,34 z"
         id="path3001"
         inkscape:connector-curvature="0"
         style="fill:currentColor" />
    </g>
  </g>
</svg>
