<?xml version="1.0" encoding="UTF-8" standalone="no"?>
<!-- Created with Inkscape (http://www.inkscape.org/) -->

<svg
   xmlns:dc="http://purl.org/dc/elements/1.1/"
   xmlns:cc="http://creativecommons.org/ns#"
   xmlns:rdf="http://www.w3.org/1999/02/22-rdf-syntax-ns#"
   xmlns:svg="http://www.w3.org/2000/svg"
   xmlns="http://www.w3.org/2000/svg"
   xmlns:sodipodi="http://sodipodi.sourceforge.net/DTD/sodipodi-0.dtd"
   xmlns:inkscape="http://www.inkscape.org/namespaces/inkscape"
   width="1000"
   height="1000"
   id="svg2989"
   version="1.1"
   inkscape:version="0.48.3.1 r9886"
   sodipodi:docname="tools.svg">
  <defs
     id="defs5498" />
  <sodipodi:namedview
     inkscape:window-height="1382"
     inkscape:window-width="2496"
     inkscape:pageshadow="2"
     inkscape:pageopacity="0.0"
     borderopacity="1.0"
     bordercolor="#666666"
     pagecolor="#ffffff"
     id="base"
     showgrid="false"
     showguides="true"
     inkscape:guide-bbox="true"
     inkscape:zoom="0.5508046"
     inkscape:cx="-418.73956"
     inkscape:cy="643.75"
     inkscape:window-x="64"
     inkscape:window-y="28"
     inkscape:current-layer="layer1"
     inkscape:window-maximized="1">
    <sodipodi:guide
       orientation="horizontal"
       position="200"
       id="guide5596" />
  </sodipodi:namedview>
  <metadata
     id="metadata5594">
    <rdf:RDF>
      <cc:Work
         rdf:about="">
        <dc:format>image/svg+xml</dc:format>
        <dc:type
           rdf:resource="http://purl.org/dc/dcmitype/StillImage" />
        <dc:title></dc:title>
      </cc:Work>
    </rdf:RDF>
  </metadata>
  <g
     inkscape:label="Layer 1"
     inkscape:groupmode="layer"
     id="layer1">
    <g
       transform="matrix(0.49253156,0,0,-0.49253156,32.60392,815.61164)"
       id="g3049"
       style="fill:#000000">
      <path
         style="fill:#000000"
         inkscape:connector-curvature="0"
         d="m 1548,872 q -10,8 -25.5,25.5 -15.5,17.5 -31,30.5 -15.5,13 -33.5,17 -13,3 -39,-1 -26,-4 -38,-2 -5,1 -27,10.5 -22,9.5 -32,6.5 -13,-2 -28.5,-16 Q 1278,929 1260,907.5 1242,886 1236,880 L 1074,718 q -7,-7 -26,-23.5 Q 1029,678 1016.5,664 1004,650 995,637 q -9,-13 -8,-50 1,-37 -13,-52 -36,-46 -84,-99 -48,-53 -82,-87 L 711.5,252.5 626,167 458,-9 Q 443,-24 434.5,-31.5 426,-39 411.5,-50.5 397,-62 384.5,-66 372,-70 356,-70 q -16,0 -34,6 -10,4 -19.5,9.5 -9.5,5.5 -19,13.5 -9.5,8 -15.5,13 -6,5 -17.5,17 Q 239,1 236,5 228,12 207.5,31.5 187,51 174,63 161,75 148.5,95 136,115 133,133 q -4,19 4.5,37.5 8.5,18.5 16.5,28 8,9.5 27,28.5 l 154,149 269,257 q 15,14 44,45 29,31 53.5,54 24.5,23 48.5,39 16,12 47,10 31,-2 46,5 13,6 26.5,19 13.5,13 29,30.5 Q 914,853 920,859 l 163,163 q 7,7 28.5,25 21.5,18 35.5,34 14,16 21,30 5,7 0,34 -5,27 -4,34 2,8 10,39.5 8,31.5 4,51.5 -11,47 -54.5,90 -43.5,43 -96.5,68 -53,25 -102,33 -10,2 -41.5,0 -31.5,-2 -40.5,-2 -13,0 -20,9.5 -7,9.5 5,18.5 46,35 199,35 67,0 122.5,-14.5 55.5,-14.5 107,-47.5 51.5,-33 88.5,-65 37,-32 92,-87 l 32,-32 34.5,-34.5 q 0,0 30,-31.5 30,-31.5 32.5,-37.5 2.5,-6 26,-34.5 12,-19 29,-54.5 17,-35.5 25,-49.5 20,-32 32,-37 6,-5 27,-3 21,2 27,1 31,-7 49.5,-32.5 18.5,-25.5 18.5,-55.5 0,-7 -1,-13 -1,-6 -1.5,-10.5 -0.5,-4.5 -4,-10.5 -3.5,-6 -4.5,-9.5 -1,-3.5 -6,-10 -5,-6.5 -6,-8 -1,-1.5 -7.5,-8.5 -6.5,-7 -7.5,-8 -1,-1 -9,-8.5 -8,-7.5 -8,-8.5 -7,-7 -23.5,-25 -16.5,-18 -27,-28.5 -10.5,-10.5 -27,-23 -16.5,-12.5 -33,-17.5 -16.5,-5 -34.5,-4 -41,3 -61.5,31.5 -20.5,28.5 -17,64 3.5,35.5 26.5,62.5 z M 642,800 q -56,79 -87,79 h -2 q -25,-2 -52,-7 -27,-5 -63.5,-13.5 Q 401,850 386,847 q -4,0 -17,-3 -13,-3 -20,-5 -7,-2 -17.5,-1.5 Q 321,838 314,842 304,848 294,859.5 284,871 272.5,891 261,911 259,915 l -112,162 q -3,6 -17,22.5 -14,16.5 -22,30 -8,13.5 -8,24.5 0,18 35.5,54.5 35.5,36.5 54.5,41.5 8,1 17.5,-4.5 9.5,-5.5 17,-12.5 7.5,-7 17.5,-18 10,-11 12,-14 l 89,-90 q 3,-2 9.5,-9 6.5,-7 10.5,-11 4,-4 10.5,-8.5 6.5,-4.5 12.5,-6.5 7,-1 16.5,0.5 9.5,1.5 22.5,6 13,4.5 17,5.5 2,1 12.5,4 10.5,3 15.5,4.5 5,1.5 12,5.5 7,4 10,9 21,32 23.5,60 2.5,28 -11,49 -13.5,21 -35,43 -21.5,22 -44.5,39.5 -23,17.5 -45,41.5 -22,24 -33,46 -1,3 -1,7 0,21 33,56 40,44 63,48 3,1 6,1 15,0 34,-11 25,-13 55.5,-37.5 Q 568,1429 574,1425 l 145,-93 q 1,0 17.5,-10 16.5,-10 25,-17 8.5,-7 10.5,-15 1,-17 0.5,-24 -0.5,-7 -6.5,-27.5 -6,-20.5 -6,-24.5 -37,-160 -41,-180 18,-8 35,-22 17,-14 39.5,-37.5 Q 816,951 822,944 l 2,-1 q 23,-22 16,-36 -9,-20 -25,-26.5 -16,-6.5 -39,-9 -23,-2.5 -35,-7.5 -21,-8 -52,-32 -31,-24 -47,-32 z m 487,-150 q 32,-23 69.5,-55.5 Q 1236,562 1261,537 1286,512 1326.5,470.5 1367,429 1386,410 l 180,-170 q 7,-8 44,-41 37,-33 56,-56.5 19,-23.5 28,-52.5 5,-19 5,-38 0,-31 -14,-60 -23,-47 -69,-71 -32,-17 -66,-17 -16,0 -31.5,3.5 -15.5,3.5 -32,12 -16.5,8.5 -27.5,16 -11,7.5 -27.5,23.5 -16.5,16 -23.5,24 -7,8 -23.5,27.5 Q 1368,30 1364,34 1321,83 1235.5,171 1150,259 1113,299 q -8,10 -37.5,41.5 -29.5,31.5 -45.5,49.5 -1,1 -10.5,9.5 -9.5,8.5 -13,15.5 -3.5,7 -3.5,13 0,12 22,34 22,22 23,26 13,19 20,57 7,38 15,54 5,8 12,16.5 7,8.5 19,20 12,11.5 15,14.5 z m 671,257 z"
         id="path3051" />
    </g>
  </g>
</svg>
